HIERARCHY
ROOT Hips
{
  OFFSET 91.2244 90.026 26.1335
  CHANNELS 6 Xposition Yposition Zposition Zrotation Xrotation Yrotation
  JOINT RightUpLeg
  {
    OFFSET -9.26543 -1.55198 -0.00276407
    CHANNELS 3 Zrotation Xrotation Yrotation
    JOINT RightLeg
    {
      OFFSET 0.00706465 -41.889 0.0798854
      CHANNELS 3 Zrotation Xrotation Yrotation
      JOINT RightFoot
      {
        OFFSET -1.51766 -41.6901 -0.263239
        CHANNELS 3 Zrotation Xrotation Yrotation
        End Site
        {
          OFFSET 0 -7.69 17.5
        }
      }
    }
  }
  JOINT LeftUpLeg
  {
    OFFSET 9.33035 -1.6331 0.002402
    CHANNELS 3 Zrotation Xrotation Yrotation
    JOINT LeftLeg
    {
      OFFSET 0.0774 -41.8788 0.006528
      CHANNELS 3 Zrotation Xrotation Yrotation
      JOINT LeftFoot
      {
        OFFSET 0.406189 -42.2791 -0.67832
        CHANNELS 3 Zrotation Xrotation Yrotation
        End Site
        {
          OFFSET 0 -7.69 17.5
        }
      }
    }
  }
  JOINT Spine
  {
    OFFSET 0.0210118 14.3125 0.030377
    CHANNELS 3 Zrotation Xrotation Yrotation
    JOINT Spine1
    {
      OFFSET -2.02627e-05 9.71981 0.0121962
      CHANNELS 3 Zrotation Xrotation Yrotation
      JOINT Spine2
      {
        OFFSET 0.023812 10.122 0.0180119
        CHANNELS 3 Zrotation Xrotation Yrotation
        JOINT Spine3
        {
          OFFSET 0.00443321 9.71861 0.0143853
          CHANNELS 3 Zrotation Xrotation Yrotation
          JOINT Neck
          {
            OFFSET -0.025003 10.3767 0.0233355
            CHANNELS 3 Zrotation Xrotation Yrotation
            JOINT Head
            {
              OFFSET -0.00975384 9.4764 0.045578
              CHANNELS 3 Zrotation Xrotation Yrotation
              End Site
              {
                OFFSET 0 15.95 0
              }
            }
          }
          JOINT RightShoulder
          {
            OFFSET -3.18407 6.9358 0.0313291
            CHANNELS 3 Zrotation Xrotation Yrotation
            JOINT RightArm
            {
              OFFSET -12.7601 0.0147069 0.0234973
              CHANNELS 3 Zrotation Xrotation Yrotation
              JOINT RightForeArm
              {
                OFFSET -26.4708 -0.032683 0.042111
                CHANNELS 3 Zrotation Xrotation Yrotation
                JOINT RightHand
                {
                  OFFSET -26.0234 -0.0283521 0.00388791
                  CHANNELS 3 Zrotation Xrotation Yrotation
                  JOINT RightHandThumb1
                  {
                    OFFSET -2.48905 0.190105 3.12053
                    CHANNELS 3 Zrotation Xrotation Yrotation
                    JOINT RightHandThumb2
                    {
                      OFFSET -3.68274 0 0
                      CHANNELS 3 Zrotation Xrotation Yrotation
                      JOINT RightHandThumb3
                      {
                        OFFSET -2.55832 0 0
                        CHANNELS 3 Zrotation Xrotation Yrotation
                        End Site
                        {
                          OFFSET -2.194 0 0
                        }
                      }
                    }
                  }
                  JOINT RightInHandIndex
                  {
                    OFFSET -3.22368 0.508421 1.97842
                    CHANNELS 3 Zrotation Xrotation Yrotation
                    JOINT RightHandIndex1
                    {
                      OFFSET -5.21684 -0.091368 0.999158
                      CHANNELS 3 Zrotation Xrotation Yrotation
                      JOINT RightHandIndex2
                      {
                        OFFSET -3.61937 0 0
                        CHANNELS 3 Zrotation Xrotation Yrotation
                        JOINT RightHandIndex3
                        {
                          OFFSET -2.0521 0 0
                          CHANNELS 3 Zrotation Xrotation Yrotation
                          End Site
                          {
                            OFFSET -1.805 0 0
                          }
                        }
                      }
                    }
                  }
                  JOINT RightInHandMiddle
                  {
                    OFFSET -3.38211 0.517263 0.756737
                    CHANNELS 3 Zrotation Xrotation Yrotation
                    JOINT RightHandMiddle1
                    {
                      OFFSET -5.17411 -0.084 0.313895
                      CHANNELS 3 Zrotation Xrotation Yrotation
                      JOINT RightHandMiddle2
                      {
                        OFFSET -3.94947 0 0
                        CHANNELS 3 Zrotation Xrotation Yrotation
                        JOINT RightHandMiddle3
                        {
                          OFFSET -2.47579 0 0
                          CHANNELS 3 Zrotation Xrotation Yrotation
                          End Site
                          {
                            OFFSET -1.975 0 0
                          }
                        }
                      }
                    }
                  }
                  JOINT RightInHandRing
                  {
                    OFFSET -3.36516 0.537895 -0.128947
                    CHANNELS 3 Zrotation Xrotation Yrotation
                    JOINT RightHandRing1
                    {
                      OFFSET -4.63474 -0.022105 -0.478947
                      CHANNELS 3 Zrotation Xrotation Yrotation
                      JOINT RightHandRing2
                      {
                        OFFSET -3.44238 0 0
                        CHANNELS 3 Zrotation Xrotation Yrotation
                        JOINT RightHandRing3
                        {
                          OFFSET -2.3881 0 0
                          CHANNELS 3 Zrotation Xrotation Yrotation
                          End Site
                          {
                            OFFSET -1.857 0 0
                          }
                        }
                      }
                    }
                  }
                  JOINT RightInHandPinky
                  {
                    OFFSET -3.16105 0.469368 -1.20179
                    CHANNELS 3 Zrotation Xrotation Yrotation
                    JOINT RightHandPinky1
                    {
                      OFFSET -4.14105 -0.022105 -1.09053
                      CHANNELS 3 Zrotation Xrotation Yrotation
                      JOINT RightHandPinky2
                      {
                        OFFSET -2.75653 0 0
                        CHANNELS 3 Zrotation Xrotation Yrotation
                        JOINT RightHandPinky3
                        {
                          OFFSET -1.74189 0 0
                          CHANNELS 3 Zrotation Xrotation Yrotation
                          End Site
                          {
                            OFFSET -1.645 0 0
                          }
                        }
                      }
                    }
                  }
                }
              }
            }
          }
          JOINT LeftShoulder
          {
            OFFSET 3.21192 6.92101 0.01407
            CHANNELS 3 Zrotation Xrotation Yrotation
            JOINT LeftArm
            {
              OFFSET 12.7303 -0.00466279 0.011464
              CHANNELS 3 Zrotation Xrotation Yrotation
              JOINT LeftForeArm
              {
                OFFSET 26.497 -0.127446 0.0273404
                CHANNELS 3 Zrotation Xrotation Yrotation
                JOINT LeftHand
                {
                  OFFSET 26.0093 -0.0453415 -0.0774742
                  CHANNELS 3 Zrotation Xrotation Yrotation
                  JOINT LeftHandThumb1
                  {
                    OFFSET 2.48905 0.190105 3.12053
                    CHANNELS 3 Zrotation Xrotation Yrotation
                    JOINT LeftHandThumb2
                    {
                      OFFSET 3.68274 0 0
                      CHANNELS 3 Zrotation Xrotation Yrotation
                      JOINT LeftHandThumb3
                      {
                        OFFSET 2.55832 0 0
                        CHANNELS 3 Zrotation Xrotation Yrotation
                        End Site
                        {
                          OFFSET 2.194 0 0
                        }
                      }
                    }
                  }
                  JOINT LeftInHandIndex
                  {
                    OFFSET 3.22368 0.508421 1.97842
                    CHANNELS 3 Zrotation Xrotation Yrotation
                    JOINT LeftHandIndex1
                    {
                      OFFSET 5.21684 -0.091368 0.999158
                      CHANNELS 3 Zrotation Xrotation Yrotation
                      JOINT LeftHandIndex2
                      {
                        OFFSET 3.61937 0 0
                        CHANNELS 3 Zrotation Xrotation Yrotation
                        JOINT LeftHandIndex3
                        {
                          OFFSET 2.0521 0 0
                          CHANNELS 3 Zrotation Xrotation Yrotation
                          End Site
                          {
                            OFFSET 1.805 0 0
                          }
                        }
                      }
                    }
                  }
                  JOINT LeftInHandMiddle
                  {
                    OFFSET 3.38211 0.517263 0.756737
                    CHANNELS 3 Zrotation Xrotation Yrotation
                    JOINT LeftHandMiddle1
                    {
                      OFFSET 5.17411 -0.084 0.313895
                      CHANNELS 3 Zrotation Xrotation Yrotation
                      JOINT LeftHandMiddle2
                      {
                        OFFSET 3.94947 0 0
                        CHANNELS 3 Zrotation Xrotation Yrotation
                        JOINT LeftHandMiddle3
                        {
                          OFFSET 2.47579 0 0
                          CHANNELS 3 Zrotation Xrotation Yrotation
                          End Site
                          {
                            OFFSET 1.975 0 0
                          }
                        }
                      }
                    }
                  }
                  JOINT LeftInHandRing
                  {
                    OFFSET 3.36516 0.537895 -0.128947
                    CHANNELS 3 Zrotation Xrotation Yrotation
                    JOINT LeftHandRing1
                    {
                      OFFSET 4.63474 -0.022105 -0.478947
                      CHANNELS 3 Zrotation Xrotation Yrotation
                      JOINT LeftHandRing2
                      {
                        OFFSET 3.44238 0 0
                        CHANNELS 3 Zrotation Xrotation Yrotation
                        JOINT LeftHandRing3
                        {
                          OFFSET 2.3881 0 0
                          CHANNELS 3 Zrotation Xrotation Yrotation
                          End Site
                          {
                            OFFSET 1.857 0 0
                          }
                        }
                      }
                    }
                  }
                  JOINT LeftInHandPinky
                  {
                    OFFSET 3.16105 0.469368 -1.20179
                    CHANNELS 3 Zrotation Xrotation Yrotation
                    JOINT LeftHandPinky1
                    {
                      OFFSET 4.14105 -0.022105 -1.09053
                      CHANNELS 3 Zrotation Xrotation Yrotation
                      JOINT LeftHandPinky2
                      {
                        OFFSET 2.75653 0 0
                        CHANNELS 3 Zrotation Xrotation Yrotation
                        JOINT LeftHandPinky3
                        {
                          OFFSET 1.74189 0 0
                          CHANNELS 3 Zrotation Xrotation Yrotation
                          End Site
                          {
                            OFFSET 1.645 0 0
                          }
                        }
                      }
                    }
                  }
                }
              }
            }
          }
        }
      }
    }
  }
}
MOTION
Frames: 3
Frame Time: 0.00833333
8.481489895730123862e+02 8.935734741760214206e+01 2.734729774564045712e+01 2.236960194737029894e+01 -2.359621379887509107e+01 -1.405842390463402296e+02 -2.017437099786866739e+01 -5.687583120575018825e+01 -1.929131499786389625e+01 5.187496714230360517e+00 2.275648184046678324e+01 6.465119035953735604e+00 8.899926818363727676e+00 3.322477971006104092e+00 5.533467888131148316e-01 2.873124928608721262e+01 -4.810079663552609475e+01 3.959386201650023906e+01 -1.642889687970217061e+00 1.937621942894555360e+01 -2.439690947777662444e+01 -7.294387368523237214e+00 9.970584076907598181e-01 3.376861494909355343e+01 -2.390476570647292576e+00 1.055691928265691537e+01 7.124106044554706862e+00 -4.718041998826001948e-01 2.762981336517658537e+00 1.761230353920954839e+00 -8.310872834067994930e-01 4.623116569581906532e+00 2.960441358055428740e+00 5.286477885726148518e-01 1.741081144077967213e-01 -1.020552154323792982e+00 5.318209341516622057e-01 2.049860627653887768e-01 -8.194295375889719679e-01 1.037623635137524580e+01 3.018980684961998673e+00 -1.923252860778304196e+01 -2.002794528688221831e+00 -2.517719520930131960e+00 1.014137927518107674e+01 7.473802720675044498e+01 1.122932737993636998e+01 7.494675532913535676e+01 -1.091436719406128653e+01 -2.228678178356455675e+01 -2.520758849899219456e+01 7.091377624524114687e+00 -2.804943704787966752e+01 1.033355423258049965e+00 2.818400000000000105e+01 1.072940000000000005e+01 1.915919999999999845e+01 5.793424144901515666e-15 1.994332630130528994e-15 -1.000000000000000000e+01 7.542080263847848560e-15 -2.576144268780145440e-15 -1.000000000000000000e+01 -1.399330953807313138e-15 1.041376580538678202e-15 -8.723545276498305592e-17 1.998179999999999978e+01 8.718970000000000331e-01 2.396399999999999864e+00 2.400000000000000000e+01 1.762723647032168515e-15 1.316127686986399064e-16 2.000000000000000000e+01 1.998833275852705373e-16 8.947088508027410191e-16 -1.399330953807313138e-15 1.041376580538678202e-15 -8.723545276498305592e-17 2.000000000000000000e+01 -3.095451653381388706e-16 2.697563462663828428e-15 2.400000000000000000e+01 2.466705721573191958e-15 -9.330389528137477931e-16 2.000000000000000000e+01 4.204932476967575117e-15 9.932128196224209042e-15 -1.399330953807313138e-15 1.041376580538678202e-15 -8.723545276498305592e-17 1.997479999999999833e+01 -1.025649999999999951e+00 -2.819380000000000219e+00 2.400000000000000000e+01 3.986255947903325404e-17 -5.326113319135337722e-15 2.000000000000000000e+01 2.345991052329663131e-15 1.938350616812611140e-14 -1.399330953807313138e-15 1.041376580538678202e-15 -8.723545276498305592e-17 1.978150000000000119e+01 -3.009479999999999933e+00 -8.305149999999999366e+00 2.400000000000000000e+01 3.481932311510626960e-15 -6.649862081470427227e-16 2.000000000000000000e+01 7.481019141837734293e-16 9.567334992008880729e-15 -7.884164131142398446e+00 -7.871885218783024385e+00 -2.132605065676861145e+01 -4.690678954565513692e+01 3.177666548699751203e+01 -5.314776584877182586e+01 -2.574423990472912749e+01 -9.001864713882913804e+01 -2.677746757724343851e+01 -4.579371897267839664e+00 -7.412273155591741158e+01 9.493284938027062303e-01 -2.818400000000000105e+01 1.072940000000000005e+01 -1.915919999999999845e+01 7.907859217976869986e-15 -4.796162218450262846e-15 1.000000000000000000e+01 5.078487134675571424e-15 -8.638333043169001316e-15 1.000000000000000000e+01 1.314491477573440502e-15 4.456220291934669940e-15 7.589512027286144709e-16 -1.998179999999999978e+01 8.718970000000000331e-01 -2.396399999999999864e+00 -2.400000000000000000e+01 7.448836745654359685e-16 -8.564027435179256724e-16 -2.000000000000000000e+01 9.382524459929318109e-15 -2.463357463213180509e-14 1.314491477573440502e-15 4.456220291934669940e-15 7.589512027286144709e-16 -2.000000000000000000e+01 -5.078172934931198416e-15 -7.381529008261752925e-15 -2.400000000000000000e+01 -3.806368106738860760e-15 -1.011155906921124080e-14 -2.000000000000000000e+01 -7.323998697717914669e-16 -1.566469603028238523e-14 1.314491477573440502e-15 4.456220291934669940e-15 7.589512027286144709e-16 -1.997479999999999833e+01 -1.025649999999999951e+00 2.819380000000000219e+00 -2.400000000000000000e+01 -2.431468197749629092e-15 -1.175552393492553532e-14 -2.000000000000000000e+01 3.694373566118765953e-15 -1.346597474401544767e-14 1.314491477573440502e-15 4.456220291934669940e-15 7.589512027286144709e-16 -1.978150000000000119e+01 -3.009479999999999933e+00 8.305149999999999366e+00 -2.400000000000000000e+01 -8.037960995457332622e-15 -4.814593838114324349e-15 -2.000000000000000000e+01 3.422426196389258773e-15 -1.954765956711941394e-14
8.481360773172243626e+02 8.936018508308673347e+01 2.732956638602102117e+01 2.235155809175416053e+01 -2.360500326154947359e+01 -1.406857241313382190e+02 -2.004897086486316127e+01 -5.685303597033591672e+01 -1.916529871023933040e+01 5.169189043965714880e+00 2.272436804872371496e+01 6.501037828731276669e+00 8.902974118862925224e+00 3.336911888729734876e+00 5.680128486862896509e-01 2.876688938220127412e+01 -4.803182156363664035e+01 3.964280605496500698e+01 -1.640183813167258808e+00 1.938905185222042959e+01 -2.437892658484109276e+01 -7.303395531641965199e+00 9.649510625171702216e-01 3.378415674279825254e+01 -2.383977619640779810e+00 1.054159281720842500e+01 7.062408632675786890e+00 -4.711030020827461362e-01 2.758248078938337233e+00 1.745324976297331965e+00 -8.294569975660572858e-01 4.615486909040417807e+00 2.933651323835847702e+00 5.259526266164090691e-01 1.743574323089183142e-01 -1.011466887141213578e+00 5.301787832794497834e-01 2.024008522783938557e-01 -8.371874390346973893e-01 1.031735596426155155e+01 3.031708944986772458e+00 -1.903896511583202411e+01 -2.011361179565512636e+00 -2.548259009825191157e+00 1.011855177944357465e+01 7.465849278348019880e+01 1.098989566945914831e+01 7.476399380908456749e+01 -1.062283192765986328e+01 -2.228352390039789910e+01 -2.477064522181169082e+01 6.951074932472249834e+00 -2.792331418128898335e+01 1.060248945476201854e+00 2.818400000000000105e+01 1.072940000000000005e+01 1.915919999999999845e+01 5.733679590817769296e-15 2.024060868676269549e-15 -1.000000000000000000e+01 7.413001579901754542e-15 -2.511086197321646675e-15 -1.000000000000000000e+01 -1.383076488035124608e-15 1.075261609488711784e-15 -1.270965283783001979e-16 1.998179999999999978e+01 8.718970000000000331e-01 2.396399999999999864e+00 2.400000000000000000e+01 1.684860150152311391e-15 2.000891417502313137e-16 2.000000000000000000e+01 1.162950705447070121e-16 9.718034776161553301e-16 -1.383076488035124608e-15 1.075261609488711784e-15 -1.270965283783001979e-16 2.000000000000000000e+01 -3.144285281658685486e-16 2.635486473929514962e-15 2.400000000000000000e+01 2.398249486814722412e-15 -9.809380850285035860e-16 2.000000000000000000e+01 4.165491712604231260e-15 1.001084310779366118e-14 -1.383076488035124608e-15 1.075261609488711784e-15 -1.270965283783001979e-16 1.997479999999999833e+01 -1.025649999999999951e+00 -2.819380000000000219e+00 2.400000000000000000e+01 4.606576574863486662e-18 -5.145497519376197338e-15 2.000000000000000000e+01 2.358567300756226989e-15 1.938747880378502982e-14 -1.383076488035124608e-15 1.075261609488711784e-15 -1.270965283783001979e-16 1.978150000000000119e+01 -3.009479999999999933e+00 -8.305149999999999366e+00 2.400000000000000000e+01 3.434868315445346344e-15 -6.546226293825079790e-16 2.000000000000000000e+01 7.431120051071586617e-16 9.568410902152600493e-15 -7.861379499511780722e+00 -7.929921519666376817e+00 -2.130505181585388996e+01 -4.670171309106894597e+01 3.179884990275034795e+01 -5.348424993983969955e+01 -2.535731537852995032e+01 -8.969938222900067615e+01 -2.652252967959213947e+01 -4.329989095789523290e+00 -7.381426188990313619e+01 1.116168367672161654e+00 -2.818400000000000105e+01 1.072940000000000005e+01 -1.915919999999999845e+01 7.895286480502868450e-15 -4.729592043053452614e-15 1.000000000000000000e+01 5.032310082238431380e-15 -8.556233327008525842e-15 1.000000000000000000e+01 1.337863373342152201e-15 4.478093987624879671e-15 7.574342195521058732e-16 -1.998179999999999978e+01 8.718970000000000331e-01 -2.396399999999999864e+00 -2.400000000000000000e+01 7.355478259214020487e-16 -9.626167916348128938e-16 -2.000000000000000000e+01 9.367300284166372550e-15 -2.457500314741871438e-14 1.337863373342152201e-15 4.478093987624879671e-15 7.574342195521058732e-16 -2.000000000000000000e+01 -5.036392075254425984e-15 -7.379758880972048644e-15 -2.400000000000000000e+01 -3.815552951956288770e-15 -1.011265707754121232e-14 -2.000000000000000000e+01 -6.935158517966780769e-16 -1.557551794398400384e-14 1.337863373342152201e-15 4.478093987624879671e-15 7.574342195521058732e-16 -1.997479999999999833e+01 -1.025649999999999951e+00 2.819380000000000219e+00 -2.400000000000000000e+01 -2.371106464422944927e-15 -1.178255681284133192e-14 -2.000000000000000000e+01 3.675958505717908539e-15 -1.345405114265701760e-14 1.337863373342152201e-15 4.478093987624879671e-15 7.574342195521058732e-16 -1.978150000000000119e+01 -3.009479999999999933e+00 8.305149999999999366e+00 -2.400000000000000000e+01 -7.991867832102043566e-15 -4.867886748540152248e-15 -2.000000000000000000e+01 3.379857884502729741e-15 -1.945691657218809629e-14
8.481225723622792430e+02 8.936304666884872461e+01 2.731307565798101322e+01 2.233338730566928021e+01 -2.361280196415890131e+01 -1.407862819616242120e+02 -1.992175025100430119e+01 -5.683259159023248941e+01 -1.903636595615215654e+01 5.150219525540333798e+00 2.269381014280794417e+01 6.537085837886514206e+00 8.906355279600420616e+00 3.350012687276254564e+00 5.803238574863291976e-01 2.880457480808405180e+01 -4.796406577891378475e+01 3.969199942164976846e+01 -1.636347876868684326e+00 1.940381329928904819e+01 -2.436164366558752903e+01 -7.312270932383549749e+00 9.313314303895972035e-01 3.379997214443518061e+01 -2.373746867423709883e+00 1.052648553221885308e+01 6.995176052104292275e+00 -4.695924953111152433e-01 2.753436449823267740e+00 1.728120105390227756e+00 -8.264407574932145506e-01 4.607623140094113445e+00 2.904684044108744700e+00 5.228313008958763719e-01 1.748692173301428232e-01 -1.002100432713214140e+00 5.280047571142149065e-01 2.001706393807902440e-01 -8.533713868910222100e-01 1.025069301539508260e+01 3.048883764229795901e+00 -1.884112544289091318e+01 -2.026611100766212648e+00 -2.572180850829112408e+00 1.009664647902719814e+01 7.460982067212465552e+01 1.075854218863937106e+01 7.456254932462587703e+01 -1.032166837708617457e+01 -2.232873854102201605e+01 -2.429732158303249534e+01 6.809701859488448861e+00 -2.781186515535640069e+01 1.087189816522169172e+00 2.818400000000000105e+01 1.072940000000000005e+01 1.915919999999999845e+01 5.647305183995783158e-15 2.049238033614099287e-15 -1.000000000000000000e+01 7.255974510552871020e-15 -2.440372192930339650e-15 -1.000000000000000000e+01 -1.370090892872265414e-15 1.109586630167104175e-15 -1.615189905985978303e-16 1.998179999999999978e+01 8.718970000000000331e-01 2.396399999999999864e+00 2.400000000000000000e+01 1.603140482645565905e-15 2.540151279712992518e-16 2.000000000000000000e+01 2.518077541983197633e-17 1.006814180024040853e-15 -1.370090892872265414e-15 1.109586630167104175e-15 -1.615189905985978303e-16 2.000000000000000000e+01 -3.187655666490199078e-16 2.561229689744397297e-15 2.400000000000000000e+01 2.324602205766734485e-15 -1.036345889047218451e-15 2.000000000000000000e+01 4.106450370575493980e-15 1.001911807988261961e-14 -1.370090892872265414e-15 1.109586630167104175e-15 -1.615189905985978303e-16 1.997479999999999833e+01 -1.025649999999999951e+00 -2.819380000000000219e+00 2.400000000000000000e+01 -2.831824246556499438e-17 -4.980451947429132628e-15 2.000000000000000000e+01 2.362590317459813000e-15 1.930443005840006188e-14 -1.370090892872265414e-15 1.109586630167104175e-15 -1.615189905985978303e-16 1.978150000000000119e+01 -3.009479999999999933e+00 -8.305149999999999366e+00 2.400000000000000000e+01 3.366809074459475411e-15 -6.688602038958222684e-16 2.000000000000000000e+01 7.317300304268305029e-16 9.512826370146407323e-15 -7.840943351441806541e+00 -7.980401675324249489e+00 -2.128828444737996506e+01 -4.648692538203832925e+01 3.183486171231772843e+01 -5.381966960130345967e+01 -2.487736988666251747e+01 -8.935729787712982386e+01 -2.617243140103666832e+01 -4.026479227791928572e+00 -7.352824227877587759e+01 1.333245863886189042e+00 -2.818400000000000105e+01 1.072940000000000005e+01 -1.915919999999999845e+01 7.848820645165761261e-15 -4.647946476477713147e-15 1.000000000000000000e+01 4.971305677010218652e-15 -8.451390267615401482e-15 1.000000000000000000e+01 1.347335089177405840e-15 4.496769023447862603e-15 7.564066789325215137e-16 -1.998179999999999978e+01 8.718970000000000331e-01 -2.396399999999999864e+00 -2.400000000000000000e+01 7.277849601893511304e-16 -1.066924969439849279e-15 -2.000000000000000000e+01 9.338024197029336259e-15 -2.445207501418423464e-14 1.347335089177405840e-15 4.496769023447862603e-15 7.564066789325215137e-16 -2.000000000000000000e+01 -4.973887875372476885e-15 -7.356813303744368443e-15 -2.400000000000000000e+01 -3.825361541333736619e-15 -1.010262395963523717e-14 -2.000000000000000000e+01 -6.544625713997472166e-16 -1.546543777855465882e-14 1.347335089177405840e-15 4.496769023447862603e-15 7.564066789325215137e-16 -1.997479999999999833e+01 -1.025649999999999951e+00 2.819380000000000219e+00 -2.400000000000000000e+01 -2.311034187109220041e-15 -1.178332656763423015e-14 -2.000000000000000000e+01 3.650980632722746217e-15 -1.341662165721652360e-14 1.347335089177405840e-15 4.496769023447862603e-15 7.564066789325215137e-16 -1.978150000000000119e+01 -3.009479999999999933e+00 8.305149999999999366e+00 -2.400000000000000000e+01 -7.932767424561685403e-15 -4.925367051506495895e-15 -2.000000000000000000e+01 3.331940205258586460e-15 -1.932992665440916480e-14
